<svg xmlns="http://www.w3.org/2000/svg" xmlns:xlink="http://www.w3.org/1999/xlink" version="1.1" width="1000" height="1000" viewBox="0 0 1000 1000" xml:space="preserve">
<desc>Created with Fabric.js 3.5.0</desc>
<defs>
</defs>
<rect x="0" y="0" width="100%" height="100%" fill="#ffffff"/>
<g transform="matrix(26.8836 0 0 25.0862 502.2435 496.2605)" id="103515">
<path style="stroke: none; stroke-width: 1; stroke-dasharray: none; stroke-linecap: butt; stroke-dashoffset: 0; stroke-linejoin: miter; stroke-miterlimit: 4; is-custom-font: none; font-file-url: none; fill: rgb(246,93,78); fill-rule: nonzero; opacity: 1;" transform=" translate(-14, -13.5)" d="M 27.5625 0.225241 C 27.2891 0.0123868 26.9336 -0.0548301 26.6 0.0459953 C 25.3313 0.42129 23.718 0.314863 21.6727 0.180429 C 20.3984 0.096408 18.9492 0.001184 17.2813 0.001184 C 15.9742 0.001184 14.8039 0.589332 14 1.52477 C 13.1961 0.589332 12.0258 0.001184 10.7188 0.001184 C 9.05081 0.001184 7.6016 0.096408 6.32191 0.180429 C 4.2766 0.314863 2.66333 0.415689 1.39458 0.0459953 C 1.06645 -0.0548301 0.710985 0.0123868 0.437548 0.225241 C 0.164111 0.438094 0.0000488454 0.768578 0.0000488454 1.12147 V 19.707 C -0.0054199 20.9057 0.448486 22.0315 1.27973 22.883 C 2.10551 23.7344 3.20473 24.1993 4.37504 24.1993 H 12.9063 C 12.9063 24.8154 13.3985 25.3196 14 25.3196 C 14.6016 25.3196 15.0938 24.8154 15.0938 24.1993 V 4.48232 C 15.0938 3.2444 16.0727 2.24175 17.2813 2.24175 C 18.8781 2.24175 20.2945 2.33137 21.5414 2.41539 C 23.1711 2.52182 24.5547 2.61144 25.8125 2.47141 V 19.7182 C 25.8125 20.3343 26.3047 20.8384 26.9062 20.8384 C 27.5078 20.8384 28 20.3343 28 19.7182 V 1.12147 C 28 0.768578 27.8414 0.438094 27.5625 0.225241 Z M 2.18754 2.47141 C 3.44536 2.61144 4.82895 2.52182 6.45863 2.41539 C 7.7055 2.33137 9.12191 2.24175 10.7188 2.24175 C 11.9274 2.24175 12.9063 3.2444 12.9063 4.48232 V 17.5336 C 12.7313 17.4944 12.5453 17.4776 12.3594 17.4776 H 4.37504 C 3.16645 17.4776 2.18754 16.4749 2.18754 15.237 V 2.47141 Z M 4.37504 21.9587 C 3.78989 21.9587 3.23754 21.7235 2.82739 21.2978 C 2.41723 20.8721 2.18754 20.3119 2.18754 19.707 V 19.1132 C 2.83286 19.4941 3.5766 19.7182 4.37504 19.7182 H 12.3594 C 12.6602 19.7182 12.9063 19.9702 12.9063 20.2783 V 21.9587 H 4.37504 Z M 21.5524 10.3414 C 21.3664 9.9773 21 9.75325 20.6008 9.74764 C 20.2016 9.74204 19.8297 9.9605 19.6328 10.3134 L 17.3688 14.4136 C 17.2758 14.5817 17.2266 14.7721 17.2266 14.9626 V 23.6392 C 17.2266 25.4932 18.6977 27 20.5078 27 C 22.318 27 23.7891 25.4932 23.7891 23.6392 V 14.9514 C 23.7891 14.7665 23.7453 14.5873 23.6633 14.4248 L 21.5524 10.3414 Z M 20.5516 13.1981 L 21.6016 15.2258 V 21.1185 H 19.4141 V 15.265 L 20.5516 13.1981 Z M 20.5078 24.7594 C 19.9063 24.7594 19.4141 24.2553 19.4141 23.6392 V 23.3591 H 21.6016 V 23.6392 C 21.6016 24.2553 21.1094 24.7594 20.5078 24.7594 Z" stroke-linecap="round"/>
</g>
</svg>